<?xml version="1.0" encoding="utf-8"?>
<!-- Generator: Adobe Illustrator 15.0.0, SVG Export Plug-In . SVG Version: 6.00 Build 0)  -->
<!DOCTYPE svg PUBLIC "-//W3C//DTD SVG 1.1//EN" "http://www.w3.org/Graphics/SVG/1.1/DTD/svg11.dtd">
<svg version="1.1" xmlns="http://www.w3.org/2000/svg" xmlns:xlink="http://www.w3.org/1999/xlink" x="0px" y="0px" width="300px"
	 height="300px" viewBox="0 0 300 300" style="enable-background:new 0 0 300 300;" xml:space="preserve">
<style type="text/css">
<![CDATA[
	.st0{fill:#ED1C24;stroke:#000000;stroke-miterlimit:10;}
	.st1{fill:#33C6F4;stroke:#000000;stroke-miterlimit:10;}
]]>
</style>
<g id="frame0">
	<rect x="166.146" y="165.65" class="st0" width="100.432" height="83.801"/>
	<rect x="66.738" y="58.739" class="st1" width="166.522" height="171.49"/>
</g>
<g id="frame1">
	<rect x="166.146" y="155.65" class="st0" width="100.432" height="83.801"/>
	
		<rect x="66.738" y="58.739" transform="matrix(0.9954 0.0958 -0.0958 0.9954 14.5317 -13.7056)" class="st1" width="166.522" height="171.489"/>
</g>
<g id="frame2">
	<rect x="166.146" y="145.499" class="st0" width="100.432" height="83.801"/>
	
		<rect x="66.738" y="58.739" transform="matrix(0.9733 0.2296 -0.2296 0.9733 37.1804 -30.5799)" class="st1" width="166.523" height="171.49"/>
</g>
<g id="frame3">
	<rect x="166.146" y="133.188" class="st0" width="100.432" height="83.801"/>
	
		<rect x="66.738" y="58.738" transform="matrix(0.9462 0.3236 -0.3236 0.9462 54.8304 -40.7682)" class="st1" width="166.522" height="171.491"/>
</g>
<g id="frame4">
	<rect x="166.146" y="120.661" class="st0" width="100.432" height="83.801"/>
	
		<rect x="66.738" y="58.738" transform="matrix(0.912 0.4102 -0.4102 0.912 72.4704 -48.8157)" class="st1" width="166.522" height="171.491"/>
</g>
</svg>
